<svg t="1689419939376" class="icon" viewBox="0 0 1092 1024" version="1.1" xmlns="http://www.w3.org/2000/svg" p-id="1263" width="200" height="200"><path d="M537.219944 867.950397l-81.862087 76.234068c-104.885799 104.374161-273.726352 106.420713-380.658703 4.604743-99.769418-100.792694-99.25778-264.00523 1.534914-363.774648 2.55819-2.55819 5.11638-4.604742 7.674571-7.162932l195.445732-190.84099c41.442681-40.419405 94.1414-66.512945 150.933222-75.210792 58.326737-9.721123 117.67675 0 169.86383 27.116816 38.372853 18.41897 54.74527 64.466393 36.837939 102.839247-6.651295 14.325865-17.907331 26.605178-32.233197 34.279748-25.581902 14.325865-56.280185 14.325865-81.862086 0-20.97716-10.232761-44.51251-13.302589-67.024584-9.209484-23.53535 3.581466-45.535786 14.837503-62.931479 31.721558l-195.445732 189.817714c-42.465957 38.372853-45.535786 103.862522-7.162932 146.32848 1.023276 1.023276 1.534914 2.046552 2.55819 2.55819 44.000872 39.907767 111.537093 37.861215 152.468136-4.604743l78.280621-76.234068c31.721559-30.698283 81.862087-30.698283 113.583645 0 30.698283 29.675006 31.209921 78.792258 1.534914 109.490541-0.511638 1.023276-1.023276 1.534914-1.534914 2.046552z" fill="#3CBFDD" p-id="1264"></path><path d="M1010.485132 445.849013L818.620867 636.690002c-63.954755 62.419841-154.003051 90.048295-242.004794 75.210793-37.349577-6.139657-73.16424-20.465522-104.374161-41.95432-36.326301-22.512074-47.582338-70.094412-25.581902-106.420713 8.697847-13.814227 21.488798-24.558626 36.326301-31.20992 27.116816-11.767675 58.326737-8.186209 81.862087 9.209485 12.279313 8.186209 25.581902 13.814227 39.907767 16.372417 35.303025 4.093104 70.60605-8.186209 95.676314-33.768111L895.878211 333.288644c43.489234-37.349577 48.093976-102.839246 10.744399-146.32848-1.534914-2.046552-3.581466-3.581466-5.116381-5.628019-44.000872-39.907767-111.537093-37.861215-152.468136 4.604743l-78.28062 76.234068c-31.721559 30.698283-81.862087 30.698283-113.583646 0-30.698283-29.675006-31.209921-78.792258-1.534914-109.490541l1.534914-1.534914 79.815535-72.652602c104.374161-102.839246 271.168162-104.885799 378.100513-4.604742 101.304332 100.281056 101.81597 264.00523 1.534914 365.309561-2.046552 3.069828-4.093104 5.11638-6.139657 6.651295z" fill="#9CCEF7" p-id="1265"></path></svg>
